<svg width="40" height="40" viewBox="0 0 40 40" fill="none" xmlns="http://www.w3.org/2000/svg">
    <rect width="36" height="36" fill="#fd7014" />
    <path fill="#ffffff"
      d="m 8.0905495,6.4053251 c 0.1042113,0.256915 0.1569358,0.534109 0.1453849,0.807893 -0.00958,0.273695 -0.083167,0.539934 -0.1999772,0.777343 -0.1173232,0.2376 -0.2776985,0.447793 -0.457397,0.623863 -0.07911,0.07499 -0.1598541,0.144517 -0.2438872,0.206235 -0.083419,0.05936 -0.1633968,0.115701 -0.2488821,0.164878 -0.5886113,0.351325 -1.2496231,0.484822 -1.8795111,0.408216 L 4.9962176,10.72028 c -0.031917,0.182118 -0.7261235,0.177671 -0.7753,-0.0073 L 3.6462734,6.6662891 c -0.3519722,0.113531 -0.6290735,0.168732 -0.6393351,0.08978 l -0.011126,-0.04814 -0.2143785,-0.928969 0.5494519,-0.441953 c 0.3963166,-0.318818 0.8409546,-0.520443 1.283991,-0.619921 0.4441086,-0.100617 0.8900632,-0.10099 1.3179516,-0.01206 0.4274541,0.08799 0.839733,0.263408 1.2062967,0.527676 0.089804,0.06991 0.1792641,0.139626 0.2635551,0.216597 l 0.1229344,0.121063 c 0.041666,0.0406 0.07876,0.07999 0.1204261,0.128126 0.1857386,0.211038 0.3405027,0.449217 0.4444615,0.706784 z m -1.3192004,1.050074 c 0.031917,-0.139341 -0.011747,-0.281803 -0.096116,-0.36471 -0.040458,-0.04249 -0.08618,-0.07292 -0.1302641,-0.09431 -0.034159,-0.02468 -0.083591,-0.04834 -0.1218024,-0.07396 -0.042701,-0.0228 -0.088159,-0.04126 -0.1307771,-0.06227 -0.1807301,-0.07066 -0.3785491,-0.101177 -0.5732597,-0.09147 -0.033125,0.0013 -0.065909,0.0057 -0.09869,0.0097 l -0.268903,1.698145 c 0.4162424,-0.06849 0.806356,-0.261541 1.1012385,-0.540498 0.047185,-0.04192 0.091091,-0.0911 0.1321535,-0.135472 0.03917,-0.04418 0.073416,-0.09147 0.1048139,-0.137731 0.039599,-0.06821 0.067117,-0.137456 0.081612,-0.207362 z"
     transform="matrix(4,0,0,3.5,-3.5,-9)"/>
</svg>
